<?xml version="1.0" encoding="UTF-8" standalone="no"?>
<svg
   xmlns:dc="http://purl.org/dc/elements/1.1/"
   xmlns:cc="http://creativecommons.org/ns#"
   xmlns:rdf="http://www.w3.org/1999/02/22-rdf-syntax-ns#"
   xmlns:svg="http://www.w3.org/2000/svg"
   xmlns="http://www.w3.org/2000/svg"
   xmlns:sodipodi="http://sodipodi.sourceforge.net/DTD/sodipodi-0.dtd"
   xmlns:inkscape="http://www.inkscape.org/namespaces/inkscape"
   width="20"
   height="8"
   viewBox="0 0 5.2916665 2.1166667"
   version="1.1"
   id="svg8"
   inkscape:version="1.0 (9f2f71dc58, 2020-08-02)"
   sodipodi:docname="oeilplusombre.svg">
  <defs
     id="defs2" />
  <sodipodi:namedview
     id="base"
     pagecolor="#ffffff"
     bordercolor="#666666"
     borderopacity="1.0"
     inkscape:pageopacity="0.0"
     inkscape:pageshadow="2"
     inkscape:zoom="11.313709"
     inkscape:cx="4.6425697"
     inkscape:cy="-5.5986129"
     inkscape:document-units="px"
     inkscape:current-layer="layer2"
     inkscape:document-rotation="0"
     showgrid="false"
     units="px"
     inkscape:snap-object-midpoints="true"
     showguides="true"
     inkscape:guide-bbox="true"
     inkscape:window-width="1280"
     inkscape:window-height="987"
     inkscape:window-x="0"
     inkscape:window-y="0"
     inkscape:window-maximized="1">
    <sodipodi:guide
       position="-8.9381828,12.8527"
       orientation="0,-1"
       id="guide878" />
    <sodipodi:guide
       position="-17.661232,6.0708331"
       orientation="1,0"
       id="guide882" />
  </sodipodi:namedview>
  <metadata
     id="metadata5">
    <rdf:RDF>
      <cc:Work
         rdf:about="">
        <dc:format>image/svg+xml</dc:format>
        <dc:type
           rdf:resource="http://purl.org/dc/dcmitype/StillImage" />
        <dc:title></dc:title>
      </cc:Work>
    </rdf:RDF>
  </metadata>
  <g
     inkscape:label="pierre"
     inkscape:groupmode="layer"
     id="layer1" />
  <g
     inkscape:groupmode="layer"
     id="layer2"
     inkscape:label="signe plus">
    <path
       id="rect833"
       style="fill:#666666;stroke:none;stroke-width:0.024685"
       d="m 0.45996551,0.24049783 0.3615568,-0.1425898 H 4.4368638 l 0.5608785,0.1183776 0.2445658,0.4790765 V 1.5004185 L 5.0777819,1.8800318 4.5162257,1.9963677 H 0.89055285 L 0.47559664,1.8083345 0.25931435,1.5407153 V 0.53978863 Z"
       sodipodi:nodetypes="ccccccccccccc" />
    <path
       id="rect833-3"
       style="fill:#808080;stroke:none;stroke-width:0.0219448"
       d="m 1.0082505,0.32343463 0.3960065,-0.071022 2.7632957,-0.017521 0.4754662,0.034361 0.2163698,0.4279549 V 1.4163575 L 4.7138304,1.7554627 4.1850014,1.8140427 1.0093496,1.8593847 0.64223374,1.6914163 v 0 l 0.096281,-1.01413147 z"
       sodipodi:nodetypes="ccccccccccccc" />
    <g
       id="g972"
       transform="matrix(0.97453379,0,0,0.89319621,0.15731258,0.10332733)">
      <path
         style="fill:#00ff00;fill-opacity:0.436552;stroke:none;stroke-width:0.264583px;stroke-linecap:butt;stroke-linejoin:miter;stroke-opacity:1"
         d="M 2.1286279,0.24694371 1.6646942,0.64890459 1.2987801,1.1914319 1.7196866,1.7018835 2.1261567,1.9360967 2.6000584,1.9824855 3.1161208,1.9383822 3.4850213,1.7079701 3.9248001,1.4176743 4.3102121,1.0909646 3.8229095,0.68247127 3.4949918,0.39323134 2.9281647,0.22494788 Z"
         id="path935"
         sodipodi:nodetypes="cccccccccccccc" />
      <path
         style="fill:#00ff00;fill-opacity:0.807623;stroke:none;stroke-width:0.264583px;stroke-linecap:butt;stroke-linejoin:miter;stroke-opacity:1"
         d="M 2.3684768,0.37380748 2.0292373,0.77585813 1.879445,1.3534086 2.1763171,1.677103 2.4762245,1.8209362 2.7227218,1.8291862 3.275598,1.3713769 3.3792077,0.84503957 3.2131256,0.51944806 2.811973,0.37802704 Z"
         id="path946"
         sodipodi:nodetypes="ccccccccccc" />
      <path
         style="color:#000000;font-style:normal;font-variant:normal;font-weight:normal;font-stretch:normal;font-size:medium;line-height:normal;font-family:sans-serif;font-variant-ligatures:normal;font-variant-position:normal;font-variant-caps:normal;font-variant-numeric:normal;font-variant-alternates:normal;font-variant-east-asian:normal;font-feature-settings:normal;font-variation-settings:normal;text-indent:0;text-align:start;text-decoration:none;text-decoration-line:none;text-decoration-style:solid;text-decoration-color:#000000;letter-spacing:normal;word-spacing:normal;text-transform:none;writing-mode:lr-tb;direction:ltr;text-orientation:mixed;dominant-baseline:auto;baseline-shift:baseline;text-anchor:start;white-space:normal;shape-padding:0;shape-margin:0;inline-size:0;clip-rule:nonzero;display:inline;overflow:visible;visibility:visible;opacity:1;isolation:auto;mix-blend-mode:normal;color-interpolation:sRGB;color-interpolation-filters:linearRGB;solid-color:#000000;solid-opacity:1;vector-effect:none;fill:#a1670e;fill-opacity:1;fill-rule:nonzero;stroke:none;stroke-width:0.296325px;stroke-linecap:butt;stroke-linejoin:miter;stroke-miterlimit:4;stroke-dasharray:none;stroke-dashoffset:0;stroke-opacity:1;color-rendering:auto;image-rendering:auto;shape-rendering:auto;text-rendering:auto;enable-background:accumulate;stop-color:#000000;stop-opacity:1"
         d="M 2.493857,0.4379099 2.478036,0.502047 2.475846,0.97727087 2.0638688,0.98264187 2.0734788,0.92601027 1.9515654,1.0435204 v 0 0.1972842 l 0.018882,0.035997 0.042259,0.00334 0.4553481,0.00422 -0.007,0.5087396 0.01517,0.027835 0.023901,0.0072 0.2225963,0.00105 v 0 L 2.770553,1.7940116 2.795918,1.7520846 V 1.2801339 l 0.4264248,0.00867 0.055969,-0.062652 0.00489,-0.095323 v 0 -0.1199927 l -0.02499,-0.072228 -0.043696,0.0440356 h -0.4186 v -0.51254269 0 l -0.02751,-0.0365053 H 2.5737717 Z"
         id="path933"
         sodipodi:nodetypes="cccccccccccccccccccccccccccccccc" />
      <path
         style="color:#000000;font-style:normal;font-variant:normal;font-weight:normal;font-stretch:normal;font-size:medium;line-height:normal;font-family:sans-serif;font-variant-ligatures:normal;font-variant-position:normal;font-variant-caps:normal;font-variant-numeric:normal;font-variant-alternates:normal;font-variant-east-asian:normal;font-feature-settings:normal;font-variation-settings:normal;text-indent:0;text-align:start;text-decoration:none;text-decoration-line:none;text-decoration-style:solid;text-decoration-color:#000000;letter-spacing:normal;word-spacing:normal;text-transform:none;writing-mode:lr-tb;direction:ltr;text-orientation:mixed;dominant-baseline:auto;baseline-shift:baseline;text-anchor:start;white-space:normal;shape-padding:0;shape-margin:0;inline-size:0;clip-rule:nonzero;display:inline;overflow:visible;visibility:visible;opacity:1;isolation:auto;mix-blend-mode:normal;color-interpolation:sRGB;color-interpolation-filters:linearRGB;solid-color:#000000;solid-opacity:1;vector-effect:none;fill:#c57a06;fill-opacity:1;fill-rule:nonzero;stroke:none;stroke-width:0.264583px;stroke-linecap:butt;stroke-linejoin:miter;stroke-miterlimit:4;stroke-dasharray:none;stroke-dashoffset:0;stroke-opacity:1;color-rendering:auto;image-rendering:auto;shape-rendering:auto;text-rendering:auto;enable-background:accumulate;stop-color:#000000;stop-opacity:1"
         d="M 2.5434227,0.43941285 2.5292969,0.4966796 V 0.92382812 H 2.1393381 l -0.065862,0.002182 -0.034413,0.052175 v 0 0.17615128 l 0.016859,0.032141 0.037732,0.00298 h 0.4356437 v 0.4589532 l 0.013545,0.024853 0.021341,0.00643 h 0.1634281 v 0 l 0.042709,-0.031411 0.022648,-0.037436 V 1.1894531 h 0.3917434 l 0.098491,-0.058626 v 0 -0.1199927 l -0.02499,-0.072228 -0.091483,-0.014778 H 2.7929688 v -0.45763946 0 L 2.7684058,0.43359404 H 2.5946206 Z"
         id="path922"
         sodipodi:nodetypes="ccccccccccccccccccccccccccccccc" />
    </g>
    <g
       id="g1117"
       transform="translate(4.2988614,-6.4784761)">
      <path
         id="path1001"
         style="fill:#666666;stroke:none;stroke-width:0.024685"
         d="M 4.9157704,1.9128909 4.5542136,2.0554807 H 0.93887203 L 0.37799353,1.937103 0.13342775,1.4580265 V 0.65297012 L 0.297954,0.2733569 0.85951019,0.15702096 H 4.4851831 L 4.9001393,0.34505412 5.1164216,0.61267339 V 1.6136001 Z"
         sodipodi:nodetypes="ccccccccccccc" />
      <path
         id="path1003"
         style="fill:#808080;stroke:none;stroke-width:0.0219448"
         d="M 4.3674854,1.8299541 3.9714789,1.9009766 1.2081832,1.9184975 0.73271701,1.8841362 0.51634712,1.4561813 V 0.73703122 L 0.66190543,0.39792607 1.1907344,0.33934579 4.3663863,0.29400358 4.7335022,0.46197199 v 0 L 4.6372212,1.4761035 Z"
         sodipodi:nodetypes="ccccccccccccc" />
      <path
         style="fill:#00ff00;fill-opacity:0.436552;stroke:none;stroke-width:0.24685px;stroke-linecap:butt;stroke-linejoin:miter;stroke-opacity:1"
         d="M 3.1440035,1.8294922 3.5961226,1.4704622 3.9527182,0.9858789 3.5425306,0.52994547 3.1464118,0.32074713 2.6845786,0.27931265 2.1816583,0.31870528 1.8221523,0.52450849 1.393573,0.7837996 1.017976,1.0756155 1.4928689,1.4404801 1.8124357,1.6988282 2.3648279,1.8491383 Z"
         id="path1005"
         sodipodi:nodetypes="cccccccccccccc" />
      <path
         style="fill:#00ff00;fill-opacity:0.807623;stroke:none;stroke-width:0.24685px;stroke-linecap:butt;stroke-linejoin:miter;stroke-opacity:1"
         d="M 2.9102627,1.7161779 3.240863,1.3570678 3.3868407,0.84120193 3.0975288,0.55207932 2.8052589,0.42360805 2.5650389,0.41623918 2.0262424,0.82515271 1.9252713,1.2952752 2.0871239,1.5860923 2.4780606,1.7124091 Z"
         id="path1007"
         sodipodi:nodetypes="ccccccccccc" />
      <path
         style="color:#000000;font-style:normal;font-variant:normal;font-weight:normal;font-stretch:normal;font-size:medium;line-height:normal;font-family:sans-serif;font-variant-ligatures:normal;font-variant-position:normal;font-variant-caps:normal;font-variant-numeric:normal;font-variant-alternates:normal;font-variant-east-asian:normal;font-feature-settings:normal;font-variation-settings:normal;text-indent:0;text-align:start;text-decoration:none;text-decoration-line:none;text-decoration-style:solid;text-decoration-color:#000000;letter-spacing:normal;word-spacing:normal;text-transform:none;writing-mode:lr-tb;direction:ltr;text-orientation:mixed;dominant-baseline:auto;baseline-shift:baseline;text-anchor:start;white-space:normal;shape-padding:0;shape-margin:0;inline-size:0;clip-rule:nonzero;display:inline;overflow:visible;visibility:visible;isolation:auto;mix-blend-mode:normal;color-interpolation:sRGB;color-interpolation-filters:linearRGB;solid-color:#000000;solid-opacity:1;vector-effect:none;fill:#a1670e;fill-opacity:1;fill-rule:nonzero;stroke:none;stroke-width:0.276465px;stroke-linecap:butt;stroke-linejoin:miter;stroke-miterlimit:4;stroke-dasharray:none;stroke-dashoffset:0;stroke-opacity:1;color-rendering:auto;image-rendering:auto;shape-rendering:auto;text-rendering:auto;enable-background:accumulate;stop-color:#000000"
         d="m 2.7628577,1.2224816 0.2765172,0.038914 0.1156075,0.00688 0.1188045,-0.1049602 v 0 -0.17621353 l -0.018401,-0.0321524 -0.041183,-0.002983 -0.4437521,-0.003769 -0.3195139,0.003778 -0.4155654,-0.007744 -0.054544,0.0559606 -0.00477,0.085142 v 0 0.107177 l 0.066988,0.019172 -5.07e-5,0.00601 h 0.4079399 z"
         id="path1009"
         sodipodi:nodetypes="ccccccccccccccccccc" />
      <path
         style="color:#000000;font-style:normal;font-variant:normal;font-weight:normal;font-stretch:normal;font-size:medium;line-height:normal;font-family:sans-serif;font-variant-ligatures:normal;font-variant-position:normal;font-variant-caps:normal;font-variant-numeric:normal;font-variant-alternates:normal;font-variant-east-asian:normal;font-feature-settings:normal;font-variation-settings:normal;text-indent:0;text-align:start;text-decoration:none;text-decoration-line:none;text-decoration-style:solid;text-decoration-color:#000000;letter-spacing:normal;word-spacing:normal;text-transform:none;writing-mode:lr-tb;direction:ltr;text-orientation:mixed;dominant-baseline:auto;baseline-shift:baseline;text-anchor:start;white-space:normal;shape-padding:0;shape-margin:0;inline-size:0;clip-rule:nonzero;display:inline;overflow:visible;visibility:visible;isolation:auto;mix-blend-mode:normal;color-interpolation:sRGB;color-interpolation-filters:linearRGB;solid-color:#000000;solid-opacity:1;vector-effect:none;fill:#c57a06;fill-opacity:1;fill-rule:nonzero;stroke:none;stroke-width:0.24685px;stroke-linecap:butt;stroke-linejoin:miter;stroke-miterlimit:4;stroke-dasharray:none;stroke-dashoffset:0;stroke-opacity:1;color-rendering:auto;image-rendering:auto;shape-rendering:auto;text-rendering:auto;enable-background:accumulate;stop-color:#000000"
         d="m 2.7107699,1.2702174 h 0.3800278 l 0.064185,-0.00195 0.033537,-0.046602 v 0 V 1.06433 L 3.1720897,1.035622 3.1353187,1.032962 H 2.7107688 l -0.2569564,3.8e-6 H 2.0720452 l -0.095983,0.052365 v 0 0.1071771 l 0.024354,0.064514 0.089153,0.0132 h 0.3642432 z"
         id="path1011"
         sodipodi:nodetypes="cccccccccccccccccc" />
    </g>
  </g>
</svg>
