<?xml version="1.0" encoding="UTF-8" standalone="no"?>
<svg
   xmlns:dc="http://purl.org/dc/elements/1.1/"
   xmlns:cc="http://creativecommons.org/ns#"
   xmlns:rdf="http://www.w3.org/1999/02/22-rdf-syntax-ns#"
   xmlns:svg="http://www.w3.org/2000/svg"
   xmlns="http://www.w3.org/2000/svg"
   xmlns:sodipodi="http://sodipodi.sourceforge.net/DTD/sodipodi-0.dtd"
   xmlns:inkscape="http://www.inkscape.org/namespaces/inkscape"
   width="20"
   height="8"
   viewBox="0 0 5.2916665 2.1166667"
   version="1.1"
   id="svg8"
   inkscape:version="1.0 (9f2f71dc58, 2020-08-02)"
   sodipodi:docname="oeilmoins.svg">
  <defs
     id="defs2" />
  <sodipodi:namedview
     id="base"
     pagecolor="#ffffff"
     bordercolor="#666666"
     borderopacity="1.0"
     inkscape:pageopacity="0.0"
     inkscape:pageshadow="2"
     inkscape:zoom="11.313709"
     inkscape:cx="4.6425697"
     inkscape:cy="-5.5986129"
     inkscape:document-units="px"
     inkscape:current-layer="layer2"
     inkscape:document-rotation="0"
     showgrid="false"
     units="px"
     inkscape:snap-object-midpoints="true"
     showguides="true"
     inkscape:guide-bbox="true"
     inkscape:window-width="1280"
     inkscape:window-height="987"
     inkscape:window-x="0"
     inkscape:window-y="0"
     inkscape:window-maximized="1">
    <sodipodi:guide
       position="-8.9381828,12.8527"
       orientation="0,-1"
       id="guide878" />
    <sodipodi:guide
       position="-17.661232,6.0708331"
       orientation="1,0"
       id="guide882" />
  </sodipodi:namedview>
  <metadata
     id="metadata5">
    <rdf:RDF>
      <cc:Work
         rdf:about="">
        <dc:format>image/svg+xml</dc:format>
        <dc:type
           rdf:resource="http://purl.org/dc/dcmitype/StillImage" />
        <dc:title></dc:title>
      </cc:Work>
    </rdf:RDF>
  </metadata>
  <g
     inkscape:label="pierre"
     inkscape:groupmode="layer"
     id="layer1" />
  <g
     inkscape:groupmode="layer"
     id="layer2"
     inkscape:label="signe plus">
    <g
       id="g983"
       transform="matrix(0.97453379,0,0,0.89319621,-0.07149678,-3.4485497)">
      <path
         id="rect833"
         style="fill:#666666;stroke:#000000;stroke-width:0.0264583"
         d="M 0.31056176,0.15357261 0.68156665,-0.00606736 H 4.3913832 L 4.9669184,0.12646527 5.2178751,0.66282728 V 1.5641482 L 5.0490495,1.9891536 4.4728189,2.1194004 H 0.75240107 L 0.32660136,1.9088832 0.10466725,1.6092634 V 0.48865104 Z"
         sodipodi:nodetypes="ccccccccccccc" />
      <path
         id="rect833-3"
         style="fill:#808080;stroke:none;stroke-width:0.0235212"
         d="M 0.87317437,0.24642664 1.2795292,0.16691174 4.1150345,0.14729554 4.6029254,0.18576564 4.8249494,0.6648932 V 1.4700355 L 4.6755874,1.8496891 4.1329392,1.915274 0.87430217,1.9660375 0.49759297,1.7779843 v 0 l 0.098797,-1.13539614 z"
         sodipodi:nodetypes="ccccccccccccc" />
      <g
         id="g972">
        <path
           style="fill:#00ff00;fill-opacity:0.436552;stroke:none;stroke-width:0.264583px;stroke-linecap:butt;stroke-linejoin:miter;stroke-opacity:1"
           d="M 2.1286279,0.24694371 1.6646942,0.64890459 1.2987801,1.1914319 1.7196866,1.7018835 2.1261567,1.9360967 2.6000584,1.9824855 3.1161208,1.9383822 3.4850213,1.7079701 3.9248001,1.4176743 4.3102121,1.0909646 3.8229095,0.68247127 3.4949918,0.39323134 2.9281647,0.22494788 Z"
           id="path935"
           sodipodi:nodetypes="cccccccccccccc" />
        <path
           style="fill:#00ff00;fill-opacity:0.807623;stroke:none;stroke-width:0.264583px;stroke-linecap:butt;stroke-linejoin:miter;stroke-opacity:1"
           d="M 2.3684768,0.37380748 2.0292373,0.77585813 1.879445,1.3534086 2.1763171,1.677103 2.4762245,1.8209362 2.7227218,1.8291862 3.275598,1.3713769 3.3792077,0.84503957 3.2131256,0.51944806 2.811973,0.37802704 Z"
           id="path946"
           sodipodi:nodetypes="ccccccccccc" />
        <path
           style="color:#000000;font-style:normal;font-variant:normal;font-weight:normal;font-stretch:normal;font-size:medium;line-height:normal;font-family:sans-serif;font-variant-ligatures:normal;font-variant-position:normal;font-variant-caps:normal;font-variant-numeric:normal;font-variant-alternates:normal;font-variant-east-asian:normal;font-feature-settings:normal;font-variation-settings:normal;text-indent:0;text-align:start;text-decoration:none;text-decoration-line:none;text-decoration-style:solid;text-decoration-color:#000000;letter-spacing:normal;word-spacing:normal;text-transform:none;writing-mode:lr-tb;direction:ltr;text-orientation:mixed;dominant-baseline:auto;baseline-shift:baseline;text-anchor:start;white-space:normal;shape-padding:0;shape-margin:0;inline-size:0;clip-rule:nonzero;display:inline;overflow:visible;visibility:visible;opacity:1;isolation:auto;mix-blend-mode:normal;color-interpolation:sRGB;color-interpolation-filters:linearRGB;solid-color:#000000;solid-opacity:1;vector-effect:none;fill:#a1670e;fill-opacity:1;fill-rule:nonzero;stroke:none;stroke-width:0.296325px;stroke-linecap:butt;stroke-linejoin:miter;stroke-miterlimit:4;stroke-dasharray:none;stroke-dashoffset:0;stroke-opacity:1;color-rendering:auto;image-rendering:auto;shape-rendering:auto;text-rendering:auto;enable-background:accumulate;stop-color:#000000;stop-opacity:1"
           d="M 2.493857,0.4379099 2.478036,0.502047 2.475846,0.97727087 2.0638688,0.98264187 2.0734788,0.92601027 1.9515654,1.0435204 v 0 0.1972842 l 0.018882,0.035997 0.042259,0.00334 0.4553481,0.00422 -0.007,0.5087396 0.01517,0.027835 0.023901,0.0072 0.2225963,0.00105 v 0 L 2.770553,1.7940116 2.795918,1.7520846 V 1.2801339 l 0.4264248,0.00867 0.055969,-0.062652 0.00489,-0.095323 v 0 -0.1199927 l -0.02499,-0.072228 -0.043696,0.0440356 h -0.4186 v -0.51254269 0 l -0.02751,-0.0365053 H 2.5737717 Z"
           id="path933"
           sodipodi:nodetypes="cccccccccccccccccccccccccccccccc" />
        <path
           style="color:#000000;font-style:normal;font-variant:normal;font-weight:normal;font-stretch:normal;font-size:medium;line-height:normal;font-family:sans-serif;font-variant-ligatures:normal;font-variant-position:normal;font-variant-caps:normal;font-variant-numeric:normal;font-variant-alternates:normal;font-variant-east-asian:normal;font-feature-settings:normal;font-variation-settings:normal;text-indent:0;text-align:start;text-decoration:none;text-decoration-line:none;text-decoration-style:solid;text-decoration-color:#000000;letter-spacing:normal;word-spacing:normal;text-transform:none;writing-mode:lr-tb;direction:ltr;text-orientation:mixed;dominant-baseline:auto;baseline-shift:baseline;text-anchor:start;white-space:normal;shape-padding:0;shape-margin:0;inline-size:0;clip-rule:nonzero;display:inline;overflow:visible;visibility:visible;opacity:1;isolation:auto;mix-blend-mode:normal;color-interpolation:sRGB;color-interpolation-filters:linearRGB;solid-color:#000000;solid-opacity:1;vector-effect:none;fill:#c57a06;fill-opacity:1;fill-rule:nonzero;stroke:none;stroke-width:0.264583px;stroke-linecap:butt;stroke-linejoin:miter;stroke-miterlimit:4;stroke-dasharray:none;stroke-dashoffset:0;stroke-opacity:1;color-rendering:auto;image-rendering:auto;shape-rendering:auto;text-rendering:auto;enable-background:accumulate;stop-color:#000000;stop-opacity:1"
           d="M 2.5434227,0.43941285 2.5292969,0.4966796 V 0.92382812 H 2.1393381 l -0.065862,0.002182 -0.034413,0.052175 v 0 0.17615128 l 0.016859,0.032141 0.037732,0.00298 h 0.4356437 v 0.4589532 l 0.013545,0.024853 0.021341,0.00643 h 0.1634281 v 0 l 0.042709,-0.031411 0.022648,-0.037436 V 1.1894531 h 0.3917434 l 0.098491,-0.058626 v 0 -0.1199927 l -0.02499,-0.072228 -0.091483,-0.014778 H 2.7929688 v -0.45763946 0 L 2.7684058,0.43359404 H 2.5946206 Z"
           id="path922"
           sodipodi:nodetypes="ccccccccccccccccccccccccccccccc" />
      </g>
    </g>
    <g
       id="g1042"
       transform="matrix(-0.97453379,0,0,-0.89319621,4.9904106,-2.109514)">
      <path
         id="path1001"
         style="fill:#666666;stroke:#000000;stroke-width:0.0264583"
         d="m 0.07659066,-4.5033833 0.37100489,-0.15964 H 4.1574121 l 0.5755352,0.1325327 0.2509567,0.536362 v 0.9013209 L 4.8150784,-2.6678023 4.2388478,-2.5375555 H 0.51842997 L 0.09263026,-2.7480727 -0.12930385,-3.0476925 v -1.1206124 z"
         sodipodi:nodetypes="ccccccccccccc" />
      <path
         id="path1003"
         style="fill:#808080;stroke:none;stroke-width:0.0235212"
         d="m 0.63920327,-4.4105293 0.40635483,-0.079515 2.8355053,-0.019616 0.4878909,0.03847 0.222024,0.4791276 v 0.8051423 l -0.149362,0.3796536 -0.5426482,0.065585 -3.25863703,0.050764 -0.3767092,-0.1880532 v 0 l 0.098797,-1.1353961 z"
         sodipodi:nodetypes="ccccccccccccc" />
      <path
         style="fill:#00ff00;fill-opacity:0.436552;stroke:none;stroke-width:0.264583px;stroke-linecap:butt;stroke-linejoin:miter;stroke-opacity:1"
         d="m 1.8946568,-4.4100122 -0.4639337,0.4019609 -0.3659141,0.5425273 0.4209065,0.5104516 0.4064701,0.2342132 0.4739017,0.046389 0.5160624,-0.044103 0.3689005,-0.2304121 0.4397788,-0.2902958 0.385412,-0.3267097 -0.4873026,-0.4084933 -0.3279177,-0.28924 -0.5668271,-0.1682834 z"
         id="path1005"
         sodipodi:nodetypes="cccccccccccccc" />
      <path
         style="fill:#00ff00;fill-opacity:0.807623;stroke:none;stroke-width:0.264583px;stroke-linecap:butt;stroke-linejoin:miter;stroke-opacity:1"
         d="m 2.1345057,-4.2831484 -0.3392395,0.4020506 -0.1497923,0.5775505 0.2968721,0.3236944 0.2999074,0.1438332 0.2464973,0.00825 L 3.0416269,-3.285579 3.1452366,-3.8119163 2.9791545,-4.1375078 2.5780019,-4.2789289 Z"
         id="path1007"
         sodipodi:nodetypes="ccccccccccc" />
      <path
         style="color:#000000;font-style:normal;font-variant:normal;font-weight:normal;font-stretch:normal;font-size:medium;line-height:normal;font-family:sans-serif;font-variant-ligatures:normal;font-variant-position:normal;font-variant-caps:normal;font-variant-numeric:normal;font-variant-alternates:normal;font-variant-east-asian:normal;font-feature-settings:normal;font-variation-settings:normal;text-indent:0;text-align:start;text-decoration:none;text-decoration-line:none;text-decoration-style:solid;text-decoration-color:#000000;letter-spacing:normal;word-spacing:normal;text-transform:none;writing-mode:lr-tb;direction:ltr;text-orientation:mixed;dominant-baseline:auto;baseline-shift:baseline;text-anchor:start;white-space:normal;shape-padding:0;shape-margin:0;inline-size:0;clip-rule:nonzero;display:inline;overflow:visible;visibility:visible;isolation:auto;mix-blend-mode:normal;color-interpolation:sRGB;color-interpolation-filters:linearRGB;solid-color:#000000;solid-opacity:1;vector-effect:none;fill:#a1670e;fill-opacity:1;fill-rule:nonzero;stroke:none;stroke-width:0.296325px;stroke-linecap:butt;stroke-linejoin:miter;stroke-miterlimit:4;stroke-dasharray:none;stroke-dashoffset:0;stroke-opacity:1;color-rendering:auto;image-rendering:auto;shape-rendering:auto;text-rendering:auto;enable-background:accumulate;stop-color:#000000"
         d="m 2.2857626,-3.7304184 -0.2837431,-0.043567 -0.1186285,-0.0077 -0.121909,0.1175108 v 0 0.1972842 l 0.018882,0.035997 0.042259,0.00334 0.4553481,0.00422 0.3278633,-0.00423 0.4264248,0.00867 0.055969,-0.062652 0.00489,-0.095323 v 0 -0.1199927 l -0.068738,-0.021464 5.2e-5,-0.00673 h -0.4186 z"
         id="path1009"
         sodipodi:nodetypes="ccccccccccccccccccc" />
      <path
         style="color:#000000;font-style:normal;font-variant:normal;font-weight:normal;font-stretch:normal;font-size:medium;line-height:normal;font-family:sans-serif;font-variant-ligatures:normal;font-variant-position:normal;font-variant-caps:normal;font-variant-numeric:normal;font-variant-alternates:normal;font-variant-east-asian:normal;font-feature-settings:normal;font-variation-settings:normal;text-indent:0;text-align:start;text-decoration:none;text-decoration-line:none;text-decoration-style:solid;text-decoration-color:#000000;letter-spacing:normal;word-spacing:normal;text-transform:none;writing-mode:lr-tb;direction:ltr;text-orientation:mixed;dominant-baseline:auto;baseline-shift:baseline;text-anchor:start;white-space:normal;shape-padding:0;shape-margin:0;inline-size:0;clip-rule:nonzero;display:inline;overflow:visible;visibility:visible;isolation:auto;mix-blend-mode:normal;color-interpolation:sRGB;color-interpolation-filters:linearRGB;solid-color:#000000;solid-opacity:1;vector-effect:none;fill:#c57a06;fill-opacity:1;fill-rule:nonzero;stroke:none;stroke-width:0.264583px;stroke-linecap:butt;stroke-linejoin:miter;stroke-miterlimit:4;stroke-dasharray:none;stroke-dashoffset:0;stroke-opacity:1;color-rendering:auto;image-rendering:auto;shape-rendering:auto;text-rendering:auto;enable-background:accumulate;stop-color:#000000"
         d="M 2.3392116,-3.7838622 H 1.949253 l -0.065862,0.00218 -0.034413,0.052175 v 0 0.1761513 l 0.016859,0.032141 0.037732,0.00298 h 0.4356437 l 0.2636711,-4.3e-6 h 0.3917434 l 0.098491,-0.058626 v 0 -0.1199927 l -0.02499,-0.072228 -0.091483,-0.014778 H 2.6028837 Z"
         id="path1011"
         sodipodi:nodetypes="cccccccccccccccccc" />
    </g>
  </g>
</svg>
