<?xml version="1.0" encoding="UTF-8" standalone="no"?>
<svg
   xmlns:dc="http://purl.org/dc/elements/1.1/"
   xmlns:cc="http://creativecommons.org/ns#"
   xmlns:rdf="http://www.w3.org/1999/02/22-rdf-syntax-ns#"
   xmlns:svg="http://www.w3.org/2000/svg"
   xmlns="http://www.w3.org/2000/svg"
   xmlns:xlink="http://www.w3.org/1999/xlink"
   xmlns:sodipodi="http://sodipodi.sourceforge.net/DTD/sodipodi-0.dtd"
   xmlns:inkscape="http://www.inkscape.org/namespaces/inkscape"
   width="2cm"
   height="2cm"
   viewBox="0 0 20.000001 20.000001"
   version="1.1"
   id="svg8"
   inkscape:version="1.0 (6e3e5246a0, 2020-05-07)"
   sodipodi:docname="patejaguarnoshadow.svg">
  <defs
     id="defs2">
    <inkscape:path-effect
       only_selected="false"
       apply_with_weight="true"
       apply_no_weight="true"
       helper_size="0"
       steps="2"
       weight="33.333333"
       lpeversion="1"
       is_visible="true"
       id="path-effect1638"
       effect="bspline" />
    <inkscape:path-effect
       effect="bspline"
       id="path-effect1636"
       is_visible="true"
       lpeversion="1"
       weight="33.333333"
       steps="2"
       helper_size="0"
       apply_no_weight="true"
       apply_with_weight="true"
       only_selected="false" />
    <inkscape:path-effect
       effect="bspline"
       id="path-effect1634"
       is_visible="true"
       lpeversion="1"
       weight="33.333333"
       steps="2"
       helper_size="0"
       apply_no_weight="true"
       apply_with_weight="true"
       only_selected="false" />
    <inkscape:path-effect
       only_selected="false"
       apply_with_weight="true"
       apply_no_weight="true"
       helper_size="0"
       steps="2"
       weight="33.333333"
       lpeversion="1"
       is_visible="true"
       id="path-effect1632"
       effect="bspline" />
    <inkscape:path-effect
       only_selected="false"
       apply_with_weight="true"
       apply_no_weight="true"
       helper_size="0"
       steps="2"
       weight="33.333333"
       lpeversion="1"
       is_visible="true"
       id="path-effect1630"
       effect="bspline" />
    <inkscape:path-effect
       only_selected="false"
       apply_with_weight="true"
       apply_no_weight="true"
       helper_size="0"
       steps="2"
       weight="33.333333"
       lpeversion="1"
       is_visible="true"
       id="path-effect1628"
       effect="bspline" />
    <inkscape:path-effect
       effect="bspline"
       id="path-effect1626"
       is_visible="true"
       lpeversion="1"
       weight="33.333333"
       steps="2"
       helper_size="0"
       apply_no_weight="true"
       apply_with_weight="true"
       only_selected="false" />
    <inkscape:path-effect
       only_selected="false"
       apply_with_weight="true"
       apply_no_weight="true"
       helper_size="0"
       steps="2"
       weight="33.333333"
       lpeversion="1"
       is_visible="true"
       id="path-effect1624"
       effect="bspline" />
    <inkscape:path-effect
       only_selected="false"
       apply_with_weight="true"
       apply_no_weight="true"
       helper_size="0"
       steps="2"
       weight="33.333333"
       lpeversion="1"
       is_visible="true"
       id="path-effect1622"
       effect="bspline" />
    <inkscape:path-effect
       effect="bspline"
       id="path-effect1620"
       is_visible="true"
       lpeversion="1"
       weight="33.333333"
       steps="2"
       helper_size="0"
       apply_no_weight="true"
       apply_with_weight="true"
       only_selected="false" />
    <inkscape:path-effect
       effect="bspline"
       id="path-effect1618"
       is_visible="true"
       lpeversion="1"
       weight="33.333333"
       steps="2"
       helper_size="0"
       apply_no_weight="true"
       apply_with_weight="true"
       only_selected="false" />
    <inkscape:path-effect
       effect="bspline"
       id="path-effect1236"
       is_visible="true"
       lpeversion="1"
       weight="33.333333"
       steps="2"
       helper_size="0"
       apply_no_weight="true"
       apply_with_weight="true"
       only_selected="false" />
    <inkscape:path-effect
       only_selected="false"
       apply_with_weight="true"
       apply_no_weight="true"
       helper_size="0"
       steps="2"
       weight="33.333333"
       lpeversion="1"
       is_visible="true"
       id="path-effect1186"
       effect="bspline" />
    <inkscape:path-effect
       effect="bspline"
       id="path-effect1184"
       is_visible="true"
       lpeversion="1"
       weight="33.333333"
       steps="2"
       helper_size="0"
       apply_no_weight="true"
       apply_with_weight="true"
       only_selected="false" />
    <inkscape:path-effect
       effect="bspline"
       id="path-effect1182"
       is_visible="true"
       lpeversion="1"
       weight="33.333333"
       steps="2"
       helper_size="0"
       apply_no_weight="true"
       apply_with_weight="true"
       only_selected="false" />
    <inkscape:path-effect
       only_selected="false"
       apply_with_weight="true"
       apply_no_weight="true"
       helper_size="0"
       steps="2"
       weight="33.333333"
       lpeversion="1"
       is_visible="true"
       id="path-effect1180"
       effect="bspline" />
    <inkscape:path-effect
       only_selected="false"
       apply_with_weight="true"
       apply_no_weight="true"
       helper_size="0"
       steps="2"
       weight="33.333333"
       lpeversion="1"
       is_visible="true"
       id="path-effect1178"
       effect="bspline" />
    <linearGradient
       inkscape:collect="always"
       id="linearGradient1096">
      <stop
         style="stop-color:#f6dca0;stop-opacity:1"
         offset="0"
         id="stop1092" />
      <stop
         style="stop-color:#d2b04d;stop-opacity:1"
         offset="1"
         id="stop1094" />
    </linearGradient>
    <inkscape:path-effect
       effect="bspline"
       id="path-effect1076"
       is_visible="true"
       lpeversion="1"
       weight="33.333333"
       steps="2"
       helper_size="0"
       apply_no_weight="true"
       apply_with_weight="true"
       only_selected="false" />
    <inkscape:path-effect
       only_selected="false"
       apply_with_weight="true"
       apply_no_weight="true"
       helper_size="0"
       steps="2"
       weight="33.333333"
       lpeversion="1"
       is_visible="true"
       id="path-effect1072"
       effect="bspline" />
    <inkscape:path-effect
       only_selected="false"
       apply_with_weight="true"
       apply_no_weight="true"
       helper_size="0"
       steps="2"
       weight="33.333333"
       lpeversion="1"
       is_visible="true"
       id="path-effect1056"
       effect="bspline" />
    <inkscape:path-effect
       effect="bspline"
       id="path-effect1032"
       is_visible="true"
       lpeversion="1"
       weight="33.333333"
       steps="2"
       helper_size="0"
       apply_no_weight="true"
       apply_with_weight="true"
       only_selected="false" />
    <inkscape:path-effect
       effect="bspline"
       id="path-effect1028"
       is_visible="true"
       lpeversion="1"
       weight="33.333333"
       steps="2"
       helper_size="0"
       apply_no_weight="true"
       apply_with_weight="true"
       only_selected="false" />
    <linearGradient
       inkscape:collect="always"
       xlink:href="#linearGradient1096"
       id="linearGradient1098"
       x1="7.3704483"
       y1="12.955614"
       x2="12.321314"
       y2="12.955614"
       gradientUnits="userSpaceOnUse" />
    <linearGradient
       inkscape:collect="always"
       xlink:href="#linearGradient1096"
       id="linearGradient1100"
       x1="6.3388329"
       y1="11.287652"
       x2="8.0160752"
       y2="11.287652"
       gradientUnits="userSpaceOnUse" />
    <linearGradient
       inkscape:collect="always"
       xlink:href="#linearGradient1096"
       id="linearGradient1102"
       x1="7.8276262"
       y1="9.5283643"
       x2="9.5048685"
       y2="9.5283643"
       gradientUnits="userSpaceOnUse" />
    <linearGradient
       inkscape:collect="always"
       xlink:href="#linearGradient1096"
       id="linearGradient1104"
       x1="11.507151"
       y1="11.523906"
       x2="13.184393"
       y2="11.523906"
       gradientUnits="userSpaceOnUse" />
    <linearGradient
       inkscape:collect="always"
       xlink:href="#linearGradient1096"
       id="linearGradient1106"
       x1="10.018357"
       y1="9.764618"
       x2="11.695599"
       y2="9.764618"
       gradientUnits="userSpaceOnUse" />
    <linearGradient
       inkscape:collect="always"
       xlink:href="#linearGradient1096"
       id="linearGradient1188"
       gradientUnits="userSpaceOnUse"
       x1="7.3704483"
       y1="12.955614"
       x2="12.321314"
       y2="12.955614" />
    <linearGradient
       inkscape:collect="always"
       xlink:href="#linearGradient1096"
       id="linearGradient1190"
       gradientUnits="userSpaceOnUse"
       x1="6.3388329"
       y1="11.287652"
       x2="8.0160752"
       y2="11.287652" />
    <linearGradient
       inkscape:collect="always"
       xlink:href="#linearGradient1096"
       id="linearGradient1192"
       gradientUnits="userSpaceOnUse"
       x1="7.8276262"
       y1="9.5283643"
       x2="9.5048685"
       y2="9.5283643" />
    <linearGradient
       inkscape:collect="always"
       xlink:href="#linearGradient1096"
       id="linearGradient1194"
       gradientUnits="userSpaceOnUse"
       x1="11.507151"
       y1="11.523906"
       x2="13.184393"
       y2="11.523906" />
    <linearGradient
       inkscape:collect="always"
       xlink:href="#linearGradient1096"
       id="linearGradient1196"
       gradientUnits="userSpaceOnUse"
       x1="10.018357"
       y1="9.764618"
       x2="11.695599"
       y2="9.764618" />
    <filter
       inkscape:collect="always"
       style="color-interpolation-filters:sRGB"
       id="filter1230"
       x="-0.056210674"
       width="1.1124213"
       y="-0.05726113"
       height="1.1145223">
      <feGaussianBlur
         inkscape:collect="always"
         stdDeviation="0.15407642"
         id="feGaussianBlur1232" />
    </filter>
  </defs>
  <sodipodi:namedview
     id="base"
     pagecolor="#ffffff"
     bordercolor="#666666"
     borderopacity="1.0"
     inkscape:pageopacity="0.0"
     inkscape:pageshadow="2"
     inkscape:zoom="5.6"
     inkscape:cx="14.749896"
     inkscape:cy="33.420238"
     inkscape:document-units="mm"
     inkscape:current-layer="layer1"
     inkscape:document-rotation="0"
     showgrid="false"
     units="cm"
     scale-x="1"
     inkscape:snap-others="true"
     showguides="true"
     inkscape:guide-bbox="true"
     inkscape:object-nodes="true"
     inkscape:snap-nodes="true"
     inkscape:snap-to-guides="true"
     inkscape:snap-page="false"
     inkscape:snap-grids="false"
     inkscape:snap-text-baseline="true"
     inkscape:snap-object-midpoints="true"
     inkscape:snap-center="true"
     inkscape:object-paths="true"
     inkscape:snap-intersection-paths="true"
     inkscape:snap-smooth-nodes="true"
     inkscape:snap-midpoints="true"
     inkscape:window-width="1294"
     inkscape:window-height="704"
     inkscape:window-x="1352"
     inkscape:window-y="158"
     inkscape:window-maximized="1">
    <sodipodi:guide
       position="10,10"
       orientation="0,1"
       id="guide12"
       inkscape:label=""
       inkscape:locked="true"
       inkscape:color="rgb(0,0,255)" />
    <sodipodi:guide
       position="10,10"
       orientation="-1,0"
       id="guide14"
       inkscape:label=""
       inkscape:locked="true"
       inkscape:color="rgb(0,0,255)" />
  </sodipodi:namedview>
  <metadata
     id="metadata5">
    <rdf:RDF>
      <cc:Work
         rdf:about="">
        <dc:format>image/svg+xml</dc:format>
        <dc:type
           rdf:resource="http://purl.org/dc/dcmitype/StillImage" />
        <dc:title></dc:title>
      </cc:Work>
    </rdf:RDF>
  </metadata>
  <g
     inkscape:label="Calque 1"
     inkscape:groupmode="layer"
     id="layer1">
    <g
       transform="matrix(0.8668445,0,0,0.8668445,0.44619076,0.34340362)"
       id="g1441">
      <g
         style="opacity:0.66723;filter:url(#filter1230)"
         transform="translate(0.25865035,0.26063868)"
         id="g1176">
        <path
           inkscape:original-d="m 8.1409399,12.380122 c 0.3796114,-0.496952 0.7589583,-0.994169 1.1380403,-1.49165 0.4370504,-0.006 0.8738188,-0.01222 1.3103308,-0.01873 0.191956,0.286112 0.38364,0.571948 0.575063,0.857525 -0.03198,0.319866 -0.06422,0.639453 -0.09672,0.958783 0.302989,0.126099 0.6057,0.251928 0.908153,0.377496 0.136296,0.330136 0.272321,0.659995 0.408084,0.989595 -0.303982,0.351217 -0.608216,0.702155 -0.912721,1.052835 -0.285582,-0.05953 -0.571416,-0.119325 -0.857521,-0.179384 C 10.39935,14.789186 10.167432,14.662037 9.9439284,14.529362 9.563569,14.700151 9.1829606,14.870668 8.8020796,15.040924 8.3362765,14.902738 7.8702275,14.764292 7.4039044,14.625579 7.4361267,14.266397 7.4680833,13.906964 7.4997759,13.54726 7.8444168,13.394402 8.1887795,13.241286 8.5328841,13.087903 8.402498,12.852236 8.2718525,12.616313 8.1409399,12.380122 Z"
           inkscape:path-effect="#path-effect1178"
           id="path1166"
           d="m 8.3960092,12.249654 c 0.1242472,-0.366709 0.5035942,-0.863926 0.911806,-1.115678 0.4082119,-0.251751 0.8449798,-0.257994 1.1591858,-0.118038 0.314206,0.139956 0.50589,0.425792 0.585499,0.728479 0.07961,0.302687 0.04737,0.622274 0.182784,0.844937 0.135414,0.222664 0.438125,0.348493 0.657405,0.576438 0.21928,0.227945 0.355306,0.557804 0.271122,0.898063 -0.08418,0.340258 -0.388418,0.691196 -0.6833,0.836793 -0.294881,0.145596 -0.580715,0.0858 -0.833198,-0.009 C 10.394831,14.796828 10.16748,14.661977 9.8654528,14.680914 9.5634259,14.699854 9.1828176,14.870369 8.7595725,14.886478 8.3363274,14.902588 7.8702783,14.764141 7.6530596,14.515266 7.4358409,14.266392 7.4677975,13.906959 7.6560396,13.650531 7.8442784,13.394103 8.1886411,13.240987 8.295526,13.046647 8.402411,12.852306 8.271765,12.616383 8.3960125,12.249674 Z"
           style="fill:url(#linearGradient1188);fill-opacity:1;stroke:#d6bc68;stroke-width:0.264583px;stroke-linecap:butt;stroke-linejoin:miter;stroke-opacity:1" />
        <path
           inkscape:original-d="m 6.5992003,10.831039 c -0.096936,0.329327 -0.1941362,0.658389 -0.2916013,0.987187 0.3536506,0.238973 0.7070225,0.477671 1.0601368,0.716109 C 7.5689509,12.275231 7.7698934,12.015872 7.9705757,11.756244 7.9248689,11.449039 7.8788996,11.141582 7.8326648,10.833855 7.5619783,10.562092 7.2910381,10.290077 7.0198277,10.017791 6.8798804,10.289143 6.7396739,10.560221 6.5992003,10.831039 Z"
           inkscape:path-effect="#path-effect1180"
           id="path1168"
           d="m 6.6206532,10.860165 c -0.118704,0.300108 -0.2159043,0.62917 -0.087634,0.913072 0.1282704,0.283903 0.4816422,0.522601 0.7586402,0.512184 0.2769979,-0.01042 0.4779407,-0.269776 0.5554651,-0.553063 0.077524,-0.283286 0.031555,-0.590743 -0.1267962,-0.880504 -0.158351,-0.289761 -0.4292908,-0.561776 -0.6350277,-0.562326 -0.2057368,-5.49e-4 -0.3459434,0.270529 -0.4646474,0.570637 z"
           style="fill:url(#linearGradient1190);fill-opacity:1;stroke:#d6bc68;stroke-width:0.264583px;stroke-linecap:butt;stroke-linejoin:miter;stroke-opacity:1" />
        <path
           style="fill:url(#linearGradient1192);fill-opacity:1;stroke:#d6bc68;stroke-width:0.264583px;stroke-linecap:butt;stroke-linejoin:miter;stroke-opacity:1"
           d="M 8.1094465,9.1008775 C 7.9907425,9.4009853 7.8935421,9.7300471 8.0218126,10.013949 8.150083,10.297852 8.5034548,10.53655 8.7804528,10.526133 9.0574508,10.515716 9.2583936,10.256357 9.3359179,9.9730705 9.4134422,9.6897841 9.3674728,9.3823273 9.2091217,9.0925663 9.0507707,8.8028053 8.7798309,8.5307899 8.574094,8.5302408 8.3683572,8.5296917 8.2281506,8.8007696 8.1094465,9.1008775 Z"
           id="path1170"
           inkscape:path-effect="#path-effect1182"
           inkscape:original-d="M 8.0879936,9.0717514 C 7.9910577,9.4010784 7.8938574,9.7301402 7.7963923,10.058938 8.1500429,10.297911 8.5034148,10.536609 8.8565291,10.775047 9.0577442,10.515943 9.2586867,10.256584 9.459369,9.9969563 9.4136622,9.6897512 9.3676929,9.3822944 9.3214581,9.0745674 9.0507716,8.8028044 8.7798314,8.5307894 8.508621,8.2585034 8.3686737,8.5298554 8.2284672,8.8009334 8.0879936,9.0717514 Z" />
        <path
           style="fill:url(#linearGradient1194);fill-opacity:1;stroke:#d6bc68;stroke-width:0.264583px;stroke-linecap:butt;stroke-linejoin:miter;stroke-opacity:1"
           d="m 12.902572,11.09642 c 0.118705,0.300108 0.215905,0.629169 0.08763,0.913071 -0.12827,0.283903 -0.481642,0.522601 -0.75864,0.512184 -0.276998,-0.01042 -0.477941,-0.269776 -0.555465,-0.553063 -0.07752,-0.283287 -0.03155,-0.590744 0.126796,-0.880504 0.158351,-0.289761 0.429291,-0.561776 0.635028,-0.562325 0.205737,-5.5e-4 0.345943,0.270528 0.464647,0.570637 z"
           id="path1172"
           inkscape:path-effect="#path-effect1184"
           inkscape:original-d="m 12.924025,11.067293 c 0.09694,0.329327 0.194136,0.658389 0.291602,0.987187 -0.353651,0.238973 -0.707023,0.477671 -1.060137,0.716109 -0.201215,-0.259104 -0.402158,-0.518463 -0.60284,-0.778091 0.04571,-0.307205 0.09168,-0.614662 0.137911,-0.922389 0.270686,-0.271763 0.541626,-0.543778 0.812837,-0.816064 0.139947,0.271352 0.280154,0.54243 0.420627,0.813248 z" />
        <path
           inkscape:original-d="m 11.435232,9.3080049 c 0.09694,0.329327 0.194136,0.6583888 0.291601,0.9871871 -0.35365,0.238973 -0.707022,0.477671 -1.060137,0.716109 -0.201215,-0.259104 -0.402157,-0.518463 -0.602839,-0.778091 0.04571,-0.3072053 0.09168,-0.6146621 0.13791,-0.9223891 0.270687,-0.271763 0.541627,-0.543778 0.812838,-0.816064 0.139947,0.271352 0.280153,0.54243 0.420627,0.813248 z"
           inkscape:path-effect="#path-effect1186"
           id="path1174"
           d="m 11.413779,9.3371314 c 0.118704,0.3001085 0.215904,0.6291692 0.08763,0.9130716 -0.12827,0.283902 -0.481642,0.5226 -0.75864,0.512184 -0.276998,-0.01042 -0.477941,-0.269776 -0.555465,-0.553063 -0.07752,-0.2832869 -0.03155,-0.5907438 0.126796,-0.8805046 0.158351,-0.2897607 0.429291,-0.5617758 0.635028,-0.562325 0.205737,-5.493e-4 0.345943,0.2705285 0.464647,0.570637 z"
           style="fill:url(#linearGradient1196);fill-opacity:1;stroke:#d6bc68;stroke-width:0.264583px;stroke-linecap:butt;stroke-linejoin:miter;stroke-opacity:1" />
      </g>
      <path
         id="path1008"
         d="M 1.8741533,5.8965647 7.0559831,1.6228541 16.251472,4.4661613 c 0,0 2.24899,8.1397917 2.24899,8.9913137 0,0.851522 -5.433781,5.338319 -5.433781,5.338319 L 6.0573887,18.646866 1.9388745,14.953599 3.2317565,10.904793 Z"
         style="fill:#666666;stroke:none;stroke-width:0.264583px;stroke-linecap:butt;stroke-linejoin:miter;stroke-opacity:1" />
      <path
         sodipodi:nodetypes="ccccc"
         id="path1010"
         d="M 4.4657379,6.9633601 6.325839,4.9146234 7.0559831,1.6228541 1.8741533,5.8965647 Z"
         style="fill:#808080;stroke:none;stroke-width:0.264583px;stroke-linecap:butt;stroke-linejoin:miter;stroke-opacity:1" />
      <path
         id="path1012"
         d="M 6.325839,4.9146234 13.747022,6.651331 16.251472,4.4661613 7.0559831,1.6228541 Z"
         style="fill:#4d4d4d;stroke:none;stroke-width:0.264583px;stroke-linecap:butt;stroke-linejoin:miter;stroke-opacity:1" />
      <path
         sodipodi:nodetypes="cccccc"
         id="path1014"
         d="m 13.747022,6.651331 2.126829,6.031351 2.626611,0.774793 -0.71332,-3.225902 -1.53567,-5.7654117 z"
         style="fill:#808080;stroke:none;stroke-width:0.264583px;stroke-linecap:butt;stroke-linejoin:miter;stroke-opacity:1" />
      <path
         sodipodi:nodetypes="cccccc"
         id="path1016"
         d="m 15.873851,12.682682 2.626611,0.774793 c -0.280879,0.747094 -1.004177,1.306241 -1.579059,1.928438 l -3.854722,3.409881 -1.181708,-1.558855 z"
         style="fill:#cccccc;stroke:none;stroke-width:0.264583px;stroke-linecap:butt;stroke-linejoin:miter;stroke-opacity:1" />
      <path
         id="path1018"
         d="m 11.884973,17.236939 1.181708,1.558855 -7.0092923,-0.148928 0.762062,-1.546411 z"
         style="fill:#4d4d4d;stroke:none;stroke-width:0.264583px;stroke-linecap:butt;stroke-linejoin:miter;stroke-opacity:1" />
      <path
         id="path1020"
         d="M 6.0573887,18.646866 6.8194507,17.100455 4.9079488,14.654213 1.9388745,14.953599 Z"
         style="fill:#808080;stroke:none;stroke-width:0.264583px;stroke-linecap:butt;stroke-linejoin:miter;stroke-opacity:1" />
      <path
         sodipodi:nodetypes="ccccc"
         id="path1022"
         d="M 1.9388745,14.953599 4.9079488,14.654213 4.9716908,11.086946 3.2317565,10.904793 Z"
         style="fill:#4d4d4d;stroke:none;stroke-width:0.264583px;stroke-linecap:butt;stroke-linejoin:miter;stroke-opacity:1" />
      <path
         id="path1024"
         d="M 1.8741533,5.8965647 4.4657377,6.9633599 4.9716906,11.086946 3.2317565,10.904793 Z"
         style="fill:#cccccc;stroke:none;stroke-width:0.264583px;stroke-linecap:butt;stroke-linejoin:miter;stroke-opacity:1" />
      <path
         sodipodi:nodetypes="ccccc"
         id="path1238"
         d="M 4.4657377,6.9633599 6.325839,4.9146234 8.574094,8.5302408 8.0218126,10.013949 Z"
         style="fill:#797070;fill-opacity:1;stroke:none;stroke-width:0.264583px;stroke-linecap:butt;stroke-linejoin:miter;stroke-opacity:1" />
      <path
         sodipodi:nodetypes="ccccc"
         id="path1251"
         d="m 4.4657377,6.9633599 0.5059529,4.1235861 2.8754339,0.645412 0.1746881,-1.718409 z"
         style="fill:#788499;fill-opacity:1;stroke:none;stroke-width:0.264583px;stroke-linecap:butt;stroke-linejoin:miter;stroke-opacity:1" />
      <path
         id="path1253"
         d="M 4.9079488,14.654213 7.9146865,13.911149 7.8471243,11.732358 4.9716906,11.086946 Z"
         style="fill:#455e69;fill-opacity:1;stroke:none;stroke-width:0.264583px;stroke-linecap:butt;stroke-linejoin:miter;stroke-opacity:1" />
      <path
         id="path1257"
         d="m 4.9079488,14.654213 3.6462242,-1.346948 2.926338,1.593383 0.404462,2.336291 -5.0655223,-0.136484 z"
         style="fill:#6d7096;fill-opacity:1;stroke:none;stroke-width:0.264583px;stroke-linecap:butt;stroke-linejoin:miter;stroke-opacity:1" />
      <path
         id="path1259"
         d="M 6.325839,4.9146234 13.747022,6.651331 11.672429,9.5977701 8.574094,8.5302406 Z"
         style="fill:#8d7560;fill-opacity:1;stroke:none;stroke-width:0.264583px;stroke-linecap:butt;stroke-linejoin:miter;stroke-opacity:1" />
      <path
         id="path1317"
         d="m 11.0525,11.744417 4.821351,0.938265 -3.988878,4.554257 z"
         style="fill:#797070;fill-opacity:1;stroke:none;stroke-width:0.264583px;stroke-linecap:butt;stroke-linejoin:miter;stroke-opacity:1" />
      <path
         inkscape:original-d="M 5.8202548,10.85333 C 5.83214,10.777344 5.8437489,10.701079 5.8550826,10.62454 6.1249045,10.270297 6.3944394,9.9157912 6.6637041,9.5610031 6.8659852,9.582848 7.0679818,9.6044167 7.269707,9.6257102 7.4930964,9.1284354 7.7162013,8.6309045 7.939035,8.1330878 8.2527003,8.0332262 8.5660771,7.9330928 8.8791846,7.8326815 c 0.223284,0.1259026 0.4462836,0.2515247 0.6690116,0.3768732 0.2955475,-0.012621 0.5908078,-0.025519 0.8857968,-0.038691 0.136518,-0.094182 0.272755,-0.1886353 0.408718,-0.2833667 0.412224,0.2785057 0.824157,0.5567243 1.235821,0.8346729 0.09553,0.3133865 0.19078,0.6264844 0.285757,0.9393129 0.247584,0.031079 0.494882,0.061882 0.74191,0.09241 0.220606,0.3259522 0.440928,0.6516142 0.660977,0.9770082 -0.11348,0.597378 -0.22723,1.194458 -0.341258,1.791274 -0.103132,0.25432 -0.206537,0.508355 -0.310219,0.762119 -0.105275,0.399315 -0.210822,0.798338 -0.316647,1.197094 -0.17067,0.402435 -0.341607,0.804578 -0.512826,1.206453 -0.486449,0.03022 -0.973155,0.06015 -1.460147,0.08982 C 10.534734,15.599057 10.243127,15.420184 9.9512357,15.241032 9.7065513,15.338762 9.4616009,15.436207 9.2163699,15.53338 8.904058,15.56669 8.5914829,15.59971 8.2786258,15.63247 7.8714865,15.540792 7.464088,15.448847 7.056405,15.356624 6.9097196,14.964101 6.7627642,14.571318 6.6155302,14.178251 6.6644243,13.869373 6.7339151,13.56023 6.7926937,13.250805 6.6085351,12.9284 6.4241085,12.605732 6.2394019,12.282781 6.060546,11.961335 5.8814212,11.639625 5.702017,11.317634 5.741707,11.163139 5.781118,11.008373 5.8202548,10.85333 Z"
         inkscape:path-effect="#path-effect1236"
         id="path1234"
         d="M 5.8063111,10.892793 C 5.8318291,10.777297 5.8434386,10.701032 5.9840175,10.485547 6.1245964,10.270063 6.3941318,9.9155573 6.6300715,9.7490811 6.8660112,9.5826048 7.0680078,9.6041734 7.2803858,9.3662298 7.4927639,9.1282863 7.7158688,8.6307554 7.9842318,8.3318257 8.2525948,8.0328959 8.5659716,7.9327626 8.8342458,7.9456276 c 0.2682743,0.012865 0.4912739,0.1384871 0.7503796,0.1947527 0.2591057,0.056266 0.5543656,0.043369 0.7700166,-0.010323 0.21565,-0.053691 0.351887,-0.1481451 0.626111,-0.056131 0.274224,0.092014 0.686156,0.3702332 0.939645,0.6659581 0.253488,0.2957248 0.348739,0.6088226 0.520122,0.7806312 0.171383,0.1718086 0.418681,0.2026112 0.652452,0.3809907 0.233772,0.1783787 0.454093,0.5040417 0.507251,0.9653767 0.05316,0.461335 -0.06059,1.058415 -0.169182,1.483945 -0.108588,0.42553 -0.211993,0.679566 -0.316468,1.00613 -0.104475,0.326564 -0.210022,0.725587 -0.348273,1.126155 -0.138251,0.400568 -0.309189,0.80271 -0.637865,1.018681 -0.328676,0.215971 -0.815382,0.24591 -1.204517,0.171547 -0.389136,-0.07436 -0.680744,-0.253235 -0.949122,-0.294075 -0.2683781,-0.04084 -0.5133277,0.05661 -0.792049,0.121862 -0.2787212,0.06526 -0.5912954,0.09828 -0.9512554,0.06887 C 7.8715317,15.540592 7.4641335,15.448645 7.1868509,15.206401 6.9095682,14.964158 6.7626129,14.571375 6.718395,14.221305 6.6741771,13.871236 6.733598,13.560169 6.6710221,13.24431 6.6084463,12.928451 6.4240195,12.605783 6.2422361,12.283585 6.0604527,11.961387 5.8813276,11.639677 5.8113544,11.401367 5.7413812,11.163056 5.7807932,11.00829 5.8063111,10.892793 Z"
         style="fill:#333333;stroke:none;stroke-width:0.275819px;stroke-linecap:butt;stroke-linejoin:miter;stroke-opacity:1" />
      <g
         id="g1113">
        <path
           style="fill:url(#linearGradient1098);fill-opacity:1;stroke:#d6bc68;stroke-width:0.264583px;stroke-linecap:butt;stroke-linejoin:miter;stroke-opacity:1"
           d="m 8.3960092,12.249654 c 0.1242472,-0.366709 0.5035942,-0.863926 0.911806,-1.115678 0.4082119,-0.251751 0.8449798,-0.257994 1.1591858,-0.118038 0.314206,0.139956 0.50589,0.425792 0.585499,0.728479 0.07961,0.302687 0.04737,0.622274 0.182784,0.844937 0.135414,0.222664 0.438125,0.348493 0.657405,0.576438 0.21928,0.227945 0.355306,0.557804 0.271122,0.898063 -0.08418,0.340258 -0.388418,0.691196 -0.6833,0.836793 -0.294881,0.145596 -0.580715,0.0858 -0.833198,-0.009 C 10.394831,14.796828 10.16748,14.661977 9.8654528,14.680914 9.5634259,14.699854 9.1828176,14.870369 8.7595725,14.886478 8.3363274,14.902588 7.8702783,14.764141 7.6530596,14.515266 7.4358409,14.266392 7.4677975,13.906959 7.6560396,13.650531 7.8442784,13.394103 8.1886411,13.240987 8.295526,13.046647 8.402411,12.852306 8.271765,12.616383 8.3960125,12.249674 Z"
           id="path1026"
           inkscape:path-effect="#path-effect1028"
           inkscape:original-d="m 8.1409399,12.380122 c 0.3796114,-0.496952 0.7589583,-0.994169 1.1380403,-1.49165 0.4370504,-0.006 0.8738188,-0.01222 1.3103308,-0.01873 0.191956,0.286112 0.38364,0.571948 0.575063,0.857525 -0.03198,0.319866 -0.06422,0.639453 -0.09672,0.958783 0.302989,0.126099 0.6057,0.251928 0.908153,0.377496 0.136296,0.330136 0.272321,0.659995 0.408084,0.989595 -0.303982,0.351217 -0.608216,0.702155 -0.912721,1.052835 -0.285582,-0.05953 -0.571416,-0.119325 -0.857521,-0.179384 C 10.39935,14.789186 10.167432,14.662037 9.9439284,14.529362 9.563569,14.700151 9.1829606,14.870668 8.8020796,15.040924 8.3362765,14.902738 7.8702275,14.764292 7.4039044,14.625579 7.4361267,14.266397 7.4680833,13.906964 7.4997759,13.54726 7.8444168,13.394402 8.1887795,13.241286 8.5328841,13.087903 8.402498,12.852236 8.2718525,12.616313 8.1409399,12.380122 Z" />
        <path
           style="fill:url(#linearGradient1100);fill-opacity:1;stroke:#d6bc68;stroke-width:0.264583px;stroke-linecap:butt;stroke-linejoin:miter;stroke-opacity:1"
           d="m 6.6206532,10.860165 c -0.118704,0.300108 -0.2159043,0.62917 -0.087634,0.913072 0.1282704,0.283903 0.4816422,0.522601 0.7586402,0.512184 0.2769979,-0.01042 0.4779407,-0.269776 0.5554651,-0.553063 0.077524,-0.283286 0.031555,-0.590743 -0.1267962,-0.880504 -0.158351,-0.289761 -0.4292908,-0.561776 -0.6350277,-0.562326 -0.2057368,-5.49e-4 -0.3459434,0.270529 -0.4646474,0.570637 z"
           id="path1030"
           inkscape:path-effect="#path-effect1032"
           inkscape:original-d="m 6.5992003,10.831039 c -0.096936,0.329327 -0.1941362,0.658389 -0.2916013,0.987187 0.3536506,0.238973 0.7070225,0.477671 1.0601368,0.716109 C 7.5689509,12.275231 7.7698934,12.015872 7.9705757,11.756244 7.9248689,11.449039 7.8788996,11.141582 7.8326648,10.833855 7.5619783,10.562092 7.2910381,10.290077 7.0198277,10.017791 6.8798804,10.289143 6.7396739,10.560221 6.5992003,10.831039 Z" />
        <path
           inkscape:original-d="M 8.0879936,9.0717514 C 7.9910577,9.4010784 7.8938574,9.7301402 7.7963923,10.058938 8.1500429,10.297911 8.5034148,10.536609 8.8565291,10.775047 9.0577442,10.515943 9.2586867,10.256584 9.459369,9.9969563 9.4136622,9.6897512 9.3676929,9.3822944 9.3214581,9.0745674 9.0507716,8.8028044 8.7798314,8.5307894 8.508621,8.2585034 8.3686737,8.5298554 8.2284672,8.8009334 8.0879936,9.0717514 Z"
           inkscape:path-effect="#path-effect1056"
           id="path1054"
           d="M 8.1094465,9.1008775 C 7.9907425,9.4009853 7.8935421,9.7300471 8.0218126,10.013949 8.150083,10.297852 8.5034548,10.53655 8.7804528,10.526133 9.0574508,10.515716 9.2583936,10.256357 9.3359179,9.9730705 9.4134422,9.6897841 9.3674728,9.3823273 9.2091217,9.0925663 9.0507707,8.8028053 8.7798309,8.5307899 8.574094,8.5302408 8.3683572,8.5296917 8.2281506,8.8007696 8.1094465,9.1008775 Z"
           style="fill:url(#linearGradient1102);fill-opacity:1;stroke:#d6bc68;stroke-width:0.264583px;stroke-linecap:butt;stroke-linejoin:miter;stroke-opacity:1" />
        <path
           inkscape:original-d="m 12.924025,11.067293 c 0.09694,0.329327 0.194136,0.658389 0.291602,0.987187 -0.353651,0.238973 -0.707023,0.477671 -1.060137,0.716109 -0.201215,-0.259104 -0.402158,-0.518463 -0.60284,-0.778091 0.04571,-0.307205 0.09168,-0.614662 0.137911,-0.922389 0.270686,-0.271763 0.541626,-0.543778 0.812837,-0.816064 0.139947,0.271352 0.280154,0.54243 0.420627,0.813248 z"
           inkscape:path-effect="#path-effect1072"
           id="path1070"
           d="m 12.902572,11.09642 c 0.118705,0.300108 0.215905,0.629169 0.08763,0.913071 -0.12827,0.283903 -0.481642,0.522601 -0.75864,0.512184 -0.276998,-0.01042 -0.477941,-0.269776 -0.555465,-0.553063 -0.07752,-0.283287 -0.03155,-0.590744 0.126796,-0.880504 0.158351,-0.289761 0.429291,-0.561776 0.635028,-0.562325 0.205737,-5.5e-4 0.345943,0.270528 0.464647,0.570637 z"
           style="fill:url(#linearGradient1104);fill-opacity:1;stroke:#d6bc68;stroke-width:0.264583px;stroke-linecap:butt;stroke-linejoin:miter;stroke-opacity:1" />
        <path
           style="fill:url(#linearGradient1106);fill-opacity:1;stroke:#d6bc68;stroke-width:0.264583px;stroke-linecap:butt;stroke-linejoin:miter;stroke-opacity:1"
           d="m 11.413779,9.3371314 c 0.118704,0.3001085 0.215904,0.6291692 0.08763,0.9130716 -0.12827,0.283902 -0.481642,0.5226 -0.75864,0.512184 -0.276998,-0.01042 -0.477941,-0.269776 -0.555465,-0.553063 -0.07752,-0.2832869 -0.03155,-0.5907438 0.126796,-0.8805046 0.158351,-0.2897607 0.429291,-0.5617758 0.635028,-0.562325 0.205737,-5.493e-4 0.345943,0.2705285 0.464647,0.570637 z"
           id="path1074"
           inkscape:path-effect="#path-effect1076"
           inkscape:original-d="m 11.435232,9.3080049 c 0.09694,0.329327 0.194136,0.6583888 0.291601,0.9871871 -0.35365,0.238973 -0.707022,0.477671 -1.060137,0.716109 -0.201215,-0.259104 -0.402157,-0.518463 -0.602839,-0.778091 0.04571,-0.3072053 0.09168,-0.6146621 0.13791,-0.9223891 0.270687,-0.271763 0.541627,-0.543778 0.812838,-0.816064 0.139947,0.271352 0.280153,0.54243 0.420627,0.813248 z" />
      </g>
    </g>
  </g>
</svg>
